<svg xmlns="http://www.w3.org/2000/svg" viewBox="0 0 640 360" role="img" aria-labelledby="title desc">
  <title id="title">Input guide thumbnail</title>
  <desc id="desc">A sheet-like panel with stat and skill input fields.</desc>
  <defs>
    <linearGradient id="bg" x1="0" x2="1" y1="0" y2="1">
      <stop offset="0" stop-color="#1b2536"/>
      <stop offset="1" stop-color="#30284a"/>
    </linearGradient>
    <filter id="shadow" x="-10%" y="-10%" width="120%" height="130%">
      <feDropShadow dx="0" dy="12" stdDeviation="9" flood-color="#080c16" flood-opacity=".38"/>
    </filter>
  </defs>
  <rect width="640" height="360" rx="28" fill="url(#bg)"/>
  <rect x="88" y="66" width="464" height="228" rx="22" fill="#eef5f1" filter="url(#shadow)"/>
  <rect x="112" y="94" width="180" height="38" rx="10" fill="#253346"/>
  <rect x="316" y="94" width="100" height="38" rx="10" fill="#68c870"/>
  <rect x="432" y="94" width="96" height="38" rx="10" fill="#f2d36b"/>
  <g fill="#253346">
    <rect x="112" y="158" width="72" height="52" rx="10"/>
    <rect x="200" y="158" width="72" height="52" rx="10"/>
    <rect x="288" y="158" width="72" height="52" rx="10"/>
    <rect x="376" y="158" width="72" height="52" rx="10"/>
    <rect x="464" y="158" width="64" height="52" rx="10"/>
  </g>
  <g fill="#7fc8f8">
    <rect x="124" y="174" width="48" height="8" rx="4"/>
    <rect x="212" y="174" width="48" height="8" rx="4"/>
    <rect x="300" y="174" width="48" height="8" rx="4"/>
    <rect x="388" y="174" width="48" height="8" rx="4"/>
    <rect x="476" y="174" width="40" height="8" rx="4"/>
  </g>
  <g fill="#4b5a6d">
    <rect x="112" y="238" width="416" height="12" rx="6"/>
    <rect x="112" y="262" width="300" height="12" rx="6"/>
  </g>
  <g fill="#ffffff" font-family="Arial, sans-serif" font-size="18" font-weight="700">
    <text x="128" y="120">STATS</text>
    <text x="336" y="120">AUTO</text>
    <text x="452" y="120">TOTAL</text>
  </g>
</svg>
