<svg xmlns="http://www.w3.org/2000/svg" viewBox="0 0 640 360" role="img" aria-labelledby="title desc">
  <title id="title">Export and import guide thumbnail</title>
  <desc id="desc">Arrows and file cards representing JSON export and import.</desc>
  <defs>
    <linearGradient id="bg" x1="0" x2="1" y1="0" y2="1">
      <stop offset="0" stop-color="#19252f"/>
      <stop offset="1" stop-color="#3b2f25"/>
    </linearGradient>
    <filter id="shadow" x="-10%" y="-10%" width="120%" height="130%">
      <feDropShadow dx="0" dy="12" stdDeviation="9" flood-color="#080c16" flood-opacity=".38"/>
    </filter>
  </defs>
  <rect width="640" height="360" rx="28" fill="url(#bg)"/>
  <g filter="url(#shadow)">
    <rect x="90" y="84" width="160" height="210" rx="18" fill="#f7efe3"/>
    <rect x="390" y="84" width="160" height="210" rx="18" fill="#f7efe3"/>
  </g>
  <path d="M218 126h-82v128h68" fill="none" stroke="#293647" stroke-width="14" stroke-linecap="round"/>
  <path d="M526 126h-82v128h68" fill="none" stroke="#293647" stroke-width="14" stroke-linecap="round"/>
  <g fill="#68c870">
    <rect x="126" y="144" width="88" height="12" rx="6"/>
    <rect x="126" y="172" width="64" height="12" rx="6"/>
    <rect x="426" y="144" width="88" height="12" rx="6"/>
    <rect x="426" y="172" width="64" height="12" rx="6"/>
  </g>
  <g fill="none" stroke="#7fc8f8" stroke-width="10" stroke-linecap="round" stroke-linejoin="round">
    <path d="M272 142h96"/>
    <path d="m344 116 28 26-28 26"/>
  </g>
  <g fill="none" stroke="#f2d36b" stroke-width="10" stroke-linecap="round" stroke-linejoin="round">
    <path d="M368 232h-96"/>
    <path d="m296 206-28 26 28 26"/>
  </g>
  <g font-family="Arial, sans-serif" font-weight="700" text-anchor="middle">
    <text x="170" y="234" fill="#293647" font-size="28">JSON</text>
    <text x="470" y="234" fill="#293647" font-size="28">SHEET</text>
    <text x="320" y="92" fill="#ffffff" font-size="20">EXPORT / IMPORT</text>
  </g>
</svg>
